<?xml version="1.0" encoding="utf-8"?>
<!-- Generator: Adobe Illustrator 26.5.0, SVG Export Plug-In . SVG Version: 6.00 Build 0)  -->
<svg version="1.1" id="레이어_1" xmlns="http://www.w3.org/2000/svg" xmlns:xlink="http://www.w3.org/1999/xlink" x="0px"
	 y="0px" viewBox="0 0 190.82 65.49" style="enable-background:new 0 0 190.82 65.49;" xml:space="preserve">
<style type="text/css">
	.st0{fill:#FFFFFF;}
</style>
<g>
	<path class="st0" d="M83.33,6.54c-7.33,0-13.3,5.97-13.3,13.3c0,7.33,5.97,13.3,13.3,13.3c7.33,0,13.3-5.97,13.3-13.3
		C96.63,12.5,90.66,6.54,83.33,6.54z"/>
	<path class="st0" d="M170.95-0.04h-89.6c-10.93,0-19.88,8.94-19.88,19.88c0,10.93,8.94,19.88,19.88,19.88h89.6
		c10.93,0,19.88-8.94,19.88-19.88C190.82,8.91,181.88-0.04,170.95-0.04z M83.33,35.55c-8.67,0-15.72-7.05-15.72-15.72
		c0-8.66,7.05-15.71,15.72-15.71c8.66,0,15.71,7.05,15.71,15.71C99.04,28.5,91.99,35.55,83.33,35.55z M126.15,35.55h-3.32
		c-4.67-7.27-16.34-25.55-18.59-29h-0.04c0.22,4.13,0.18,8.71,0.18,14.41v14.59h-2.47V4.13h3.59c4.9,7.54,16.39,25.1,18.36,28.51
		h0.04c-0.27-4.53-0.22-9.16-0.22-14.28V4.13h2.47V35.55z M170.87,37.31c-9.65,0-17.47-7.82-17.47-17.47s7.82-17.47,17.47-17.47
		s17.47,7.82,17.47,17.47S180.52,37.31,170.87,37.31z"/>
</g>
<g>
	<g>
		
			<rect x="-1.33" y="17.77" transform="matrix(-1.836970e-16 1 -1 -1.836970e-16 34.2205 6.4102)" class="st0" width="30.48" height="5.09"/>
		<rect y="4.13" class="st0" width="27.81" height="5.09"/>
	</g>
	<path class="st0" d="M42.12,4.13c-8.67,0-15.71,7.05-15.71,15.71c0,8.67,7.05,15.71,15.71,15.71c8.66,0,15.71-7.05,15.71-15.71
		C57.83,11.17,50.78,4.13,42.12,4.13z M42.12,9.08c5.93,0,10.76,4.83,10.76,10.76c0,5.93-4.83,10.76-10.76,10.76
		c-5.93,0-10.76-4.83-10.76-10.76C31.36,13.91,36.18,9.08,42.12,9.08z"/>
</g>
<g>
	<g>
		<path class="st0" d="M72.22,51.27h7.09v1.5h-2.66v10.56h-1.77V52.77h-2.66V51.27z"/>
		<path class="st0" d="M80.27,53.67c0-1.85,1.52-2.67,3.48-2.67c1.96,0,3.48,0.82,3.48,2.67v7.26c0,1.85-1.52,2.67-3.48,2.67
			c-1.96,0-3.48-0.82-3.48-2.67V53.67z M82.01,60.76c0,0.86,0.72,1.37,1.73,1.37c0.99,0,1.73-0.51,1.73-1.37v-6.91
			c0-0.86-0.74-1.37-1.73-1.37c-1.01,0-1.73,0.51-1.73,1.37V60.76z"/>
		<path class="st0" d="M92.77,53.67c0-1.85,1.52-2.67,3.48-2.67c1.96,0,3.48,0.82,3.48,2.67v7.26c0,1.85-1.52,2.67-3.48,2.67
			c-1.96,0-3.48-0.82-3.48-2.67V53.67z M94.52,60.76c0,0.86,0.72,1.37,1.73,1.37c0.99,0,1.73-0.51,1.73-1.37v-6.91
			c0-0.86-0.74-1.37-1.73-1.37c-1.01,0-1.73,0.51-1.73,1.37V60.76z"/>
		<path class="st0" d="M108.27,51.27v12.07h-1.84l-3.38-8.44v8.44h-1.69V51.27h1.83l3.4,8.47v-8.47H108.27z"/>
		<path class="st0" d="M119.19,60.21h0.75v0.89c0,1.61-1.22,2.5-2.97,2.5c-1.74,0-2.97-0.89-2.97-2.5v-5.05
			c0-1.62,1.21-2.5,2.95-2.5s2.97,0.87,2.97,2.5v0.7h-0.74v-0.62c0-1.19-0.82-1.93-2.23-1.93s-2.21,0.74-2.21,1.93V61
			c0,1.21,0.81,1.95,2.21,1.95s2.23-0.74,2.23-1.95V60.21z"/>
		<path class="st0" d="M121.56,56.02c0-1.57,1.22-2.47,3.01-2.47c1.77,0,3.02,0.9,3.02,2.47v5.09c0,1.6-1.25,2.48-3.02,2.48
			c-1.79,0-3.01-0.89-3.01-2.48V56.02z M122.3,61.03c0,1.18,0.81,1.92,2.27,1.92c1.45,0,2.28-0.74,2.28-1.92v-4.91
			c0-1.19-0.83-1.92-2.28-1.92c-1.46,0-2.27,0.72-2.27,1.92V61.03z"/>
		<path class="st0" d="M133.58,54.29c-0.58,0-1.11,0.35-1.85,0.81l-1.46,0.9v7.34h-0.75v-9.65h0.75v1.52l1.31-0.81
			c0.78-0.48,1.32-0.85,2-0.85V54.29z"/>
		<path class="st0" d="M135.65,53.69v0.97l2.98-0.86c1.3-0.38,2.07,0.07,2.07,1.3v6.09c0,1.46-0.75,2.15-2.24,2.15h-2.81v2.07h-0.75
			V53.69H135.65z M139.96,55.38c0-0.82-0.46-1.17-1.38-0.91l-2.93,0.86v7.37h2.51c1.33,0,1.8-0.46,1.8-1.73V55.38z"/>
		<path class="st0" d="M142.5,56.02c0-1.57,1.22-2.47,3.01-2.47c1.77,0,3.02,0.9,3.02,2.47v5.09c0,1.6-1.25,2.48-3.02,2.48
			c-1.79,0-3.01-0.89-3.01-2.48V56.02z M143.24,61.03c0,1.18,0.81,1.92,2.27,1.92c1.45,0,2.28-0.74,2.28-1.92v-4.91
			c0-1.19-0.83-1.92-2.28-1.92c-1.46,0-2.27,0.72-2.27,1.92V61.03z"/>
		<path class="st0" d="M154.53,54.29c-0.58,0-1.11,0.35-1.85,0.81l-1.46,0.9v7.34h-0.75v-9.65h0.75v1.52l1.31-0.81
			c0.78-0.48,1.32-0.85,2-0.85V54.29z"/>
		<path class="st0" d="M161.23,63.34h-0.75v-0.95l-3.02,0.87c-1.28,0.36-2.07-0.11-2.07-1.3v-1.81c0-1.44,0.77-2.16,2.25-2.16h2.83
			v-1.99c0-1.09-0.68-1.81-2.09-1.81c-1.41,0-2.05,0.72-2.05,1.8v0.48h-0.75V55.9c0-1.49,1.07-2.36,2.81-2.36
			c1.73,0,2.85,0.89,2.85,2.38V63.34z M156.13,61.75c0,0.86,0.51,1.09,1.37,0.83l2.98-0.86v-3.1h-2.56c-1.31,0-1.79,0.38-1.79,1.66
			V61.75z"/>
		<path class="st0" d="M162.42,54.33v-0.64h1.75v-2.42h0.75v2.42h2.12v0.64h-2.12v6.59c0,1.37,0.83,1.8,2.12,1.8v0.64
			c-1.65,0-2.87-0.54-2.87-2.31v-6.72H162.42z"/>
		<path class="st0" d="M168.49,52.66v-1.4h0.75v1.4H168.49z M168.49,63.34v-9.65h0.75v9.65H168.49z"/>
		<path class="st0" d="M171.17,56.02c0-1.57,1.22-2.47,3.01-2.47c1.77,0,3.02,0.9,3.02,2.47v5.09c0,1.6-1.25,2.48-3.02,2.48
			c-1.79,0-3.01-0.89-3.01-2.48V56.02z M171.91,61.03c0,1.18,0.81,1.92,2.27,1.92c1.45,0,2.28-0.74,2.28-1.92v-4.91
			c0-1.19-0.83-1.92-2.28-1.92c-1.46,0-2.27,0.72-2.27,1.92V61.03z"/>
		<path class="st0" d="M179.13,63.34v-9.65h0.75v0.95l2.95-0.89c1.33-0.39,2.07,0.08,2.07,1.3v8.28h-0.75v-8.01
			c0-0.85-0.46-1.15-1.37-0.87l-2.9,0.86v8.03H179.13z"/>
	</g>
</g>
<g>
	<path class="st0" d="M9.46,65.38v-4.64H2.57v-2.11h16.32v2.11H12v4.64H9.46z M3.52,50.97v-1.86h14.43v1.86H3.52z M3.52,57.25v-5.28
		h14.35v1.81H6.04v1.59h12.08v1.88H3.52z"/>
	<path class="st0" d="M29.85,57.13h6.94v1.99H20.47v-1.99h6.93v-1.91h-3.15c-1.68,0-3.01-1.38-3.01-3.2c0-1.83,1.32-3.22,3.01-3.22
		h8.77c1.66,0,3.02,1.4,3.02,3.22c0,1.83-1.36,3.2-3.02,3.2h-3.17V57.13z M23.91,60.08v3.17h12.21v1.95H21.42v-5.12H23.91z
		 M24.77,53.15h7.73c0.63,0,1.11-0.47,1.11-1.18c0-0.72-0.48-1.16-1.11-1.16h-7.73c-0.64,0-1.11,0.45-1.11,1.16
		C23.66,52.69,24.12,53.15,24.77,53.15z"/>
	<path class="st0" d="M41.31,50.24V65.3H40.5V50.24H41.31z"/>
	<path class="st0" d="M51.31,64.82V60.1h-6.37v-0.87h13.64v0.87h-6.37v4.72H51.31z M45.61,56.67c2.87-0.12,5.61-2.31,5.66-4.21
		v-0.09h-5.51V51.5h12.01v0.87h-5.51v0.09c0.06,1.9,2.79,4.09,5.66,4.21v0.87c-2.88-0.11-5.55-1.89-6.15-3.92
		c-0.6,2.04-3.26,3.82-6.16,3.92V56.67z"/>
	<path class="st0" d="M63.03,50.24V65.3h-0.81V50.24H63.03z"/>
</g>
</svg>
